<mxfile host="app.diagrams.net" modified="2024-07-08T18:26:48.435Z" agent="Mozilla/5.0 (Windows NT 10.0; Win64; x64) AppleWebKit/537.36 (KHTML, like Gecko) Chrome/126.0.0.0 Safari/537.36" etag="b7AqNoPyIi-fE6Z30DLs" version="24.6.4" type="github">
  <diagram id="C5RBs43oDa-KdzZeNtuy" name="Page-1">
    <mxGraphModel dx="880" dy="434" grid="1" gridSize="10" guides="1" tooltips="1" connect="1" arrows="1" fold="1" page="1" pageScale="1" pageWidth="827" pageHeight="1169" math="0" shadow="0">
      <root>
        <mxCell id="WIyWlLk6GJQsqaUBKTNV-0" />
        <mxCell id="WIyWlLk6GJQsqaUBKTNV-1" parent="WIyWlLk6GJQsqaUBKTNV-0" />
        <mxCell id="jIHXx2fWcTh93cBMFM3c-17" value="" style="edgeStyle=orthogonalEdgeStyle;rounded=0;orthogonalLoop=1;jettySize=auto;html=1;" edge="1" parent="WIyWlLk6GJQsqaUBKTNV-1" source="jIHXx2fWcTh93cBMFM3c-18" target="jIHXx2fWcTh93cBMFM3c-21">
          <mxGeometry relative="1" as="geometry" />
        </mxCell>
        <mxCell id="jIHXx2fWcTh93cBMFM3c-18" value="Show me the latest smartphones." style="rounded=0;whiteSpace=wrap;html=1;" vertex="1" parent="WIyWlLk6GJQsqaUBKTNV-1">
          <mxGeometry x="70" y="140" width="120" height="60" as="geometry" />
        </mxCell>
        <mxCell id="jIHXx2fWcTh93cBMFM3c-19" value="Start" style="ellipse;whiteSpace=wrap;html=1;aspect=fixed;" vertex="1" parent="WIyWlLk6GJQsqaUBKTNV-1">
          <mxGeometry x="90" y="30" width="80" height="80" as="geometry" />
        </mxCell>
        <mxCell id="jIHXx2fWcTh93cBMFM3c-20" value="" style="edgeStyle=orthogonalEdgeStyle;rounded=0;orthogonalLoop=1;jettySize=auto;html=1;" edge="1" parent="WIyWlLk6GJQsqaUBKTNV-1" source="jIHXx2fWcTh93cBMFM3c-21" target="jIHXx2fWcTh93cBMFM3c-23">
          <mxGeometry relative="1" as="geometry" />
        </mxCell>
        <mxCell id="jIHXx2fWcTh93cBMFM3c-21" value="Here are the latest smartphones:" style="ellipse;whiteSpace=wrap;html=1;" vertex="1" parent="WIyWlLk6GJQsqaUBKTNV-1">
          <mxGeometry x="70" y="240" width="120" height="80" as="geometry" />
        </mxCell>
        <mxCell id="jIHXx2fWcTh93cBMFM3c-22" value="" style="edgeStyle=orthogonalEdgeStyle;rounded=0;orthogonalLoop=1;jettySize=auto;html=1;" edge="1" parent="WIyWlLk6GJQsqaUBKTNV-1" source="jIHXx2fWcTh93cBMFM3c-23" target="jIHXx2fWcTh93cBMFM3c-25">
          <mxGeometry relative="1" as="geometry" />
        </mxCell>
        <mxCell id="jIHXx2fWcTh93cBMFM3c-23" value="Tell me more about the first one" style="rounded=0;whiteSpace=wrap;html=1;" vertex="1" parent="WIyWlLk6GJQsqaUBKTNV-1">
          <mxGeometry x="70" y="380" width="120" height="60" as="geometry" />
        </mxCell>
        <mxCell id="jIHXx2fWcTh93cBMFM3c-24" value="" style="edgeStyle=orthogonalEdgeStyle;rounded=0;orthogonalLoop=1;jettySize=auto;html=1;" edge="1" parent="WIyWlLk6GJQsqaUBKTNV-1" source="jIHXx2fWcTh93cBMFM3c-25" target="jIHXx2fWcTh93cBMFM3c-27">
          <mxGeometry relative="1" as="geometry" />
        </mxCell>
        <mxCell id="jIHXx2fWcTh93cBMFM3c-25" value="The first smartphone is [Details about the first smartphone]. Would you like to add it to your cart?" style="ellipse;whiteSpace=wrap;html=1;" vertex="1" parent="WIyWlLk6GJQsqaUBKTNV-1">
          <mxGeometry x="50" y="485" width="160" height="100" as="geometry" />
        </mxCell>
        <mxCell id="jIHXx2fWcTh93cBMFM3c-26" value="" style="edgeStyle=orthogonalEdgeStyle;rounded=0;orthogonalLoop=1;jettySize=auto;html=1;" edge="1" parent="WIyWlLk6GJQsqaUBKTNV-1" source="jIHXx2fWcTh93cBMFM3c-27" target="jIHXx2fWcTh93cBMFM3c-29">
          <mxGeometry relative="1" as="geometry" />
        </mxCell>
        <mxCell id="jIHXx2fWcTh93cBMFM3c-27" value="Yes." style="rounded=0;whiteSpace=wrap;html=1;" vertex="1" parent="WIyWlLk6GJQsqaUBKTNV-1">
          <mxGeometry x="70" y="650" width="120" height="60" as="geometry" />
        </mxCell>
        <mxCell id="jIHXx2fWcTh93cBMFM3c-28" value="" style="edgeStyle=orthogonalEdgeStyle;rounded=0;orthogonalLoop=1;jettySize=auto;html=1;" edge="1" parent="WIyWlLk6GJQsqaUBKTNV-1" source="jIHXx2fWcTh93cBMFM3c-29" target="jIHXx2fWcTh93cBMFM3c-31">
          <mxGeometry relative="1" as="geometry">
            <mxPoint x="420" y="870" as="targetPoint" />
          </mxGeometry>
        </mxCell>
        <mxCell id="jIHXx2fWcTh93cBMFM3c-29" value="The smartphone has been added to your cart. Would you like to continue shopping or proceed to checkout?" style="ellipse;whiteSpace=wrap;html=1;" vertex="1" parent="WIyWlLk6GJQsqaUBKTNV-1">
          <mxGeometry x="50" y="780" width="160" height="100" as="geometry" />
        </mxCell>
        <mxCell id="jIHXx2fWcTh93cBMFM3c-30" value="" style="endArrow=none;html=1;rounded=0;entryX=0.5;entryY=1;entryDx=0;entryDy=0;exitX=0.5;exitY=0;exitDx=0;exitDy=0;" edge="1" parent="WIyWlLk6GJQsqaUBKTNV-1" source="jIHXx2fWcTh93cBMFM3c-18" target="jIHXx2fWcTh93cBMFM3c-19">
          <mxGeometry width="50" height="50" relative="1" as="geometry">
            <mxPoint x="390" y="170" as="sourcePoint" />
            <mxPoint x="440" y="120" as="targetPoint" />
          </mxGeometry>
        </mxCell>
        <mxCell id="jIHXx2fWcTh93cBMFM3c-31" value="End" style="ellipse;whiteSpace=wrap;html=1;aspect=fixed;" vertex="1" parent="WIyWlLk6GJQsqaUBKTNV-1">
          <mxGeometry x="90" y="930" width="80" height="80" as="geometry" />
        </mxCell>
      </root>
    </mxGraphModel>
  </diagram>
</mxfile>
